<?xml version="1.0" encoding="utf-8"?>
<!-- Generator: Adobe Illustrator 20.1.0, SVG Export Plug-In . SVG Version: 6.00 Build 0)  -->
<svg version="1.1" id="Camada_1" xmlns="http://www.w3.org/2000/svg" xmlns:xlink="http://www.w3.org/1999/xlink" x="0px" y="0px"
	 viewBox="0 0 32 32" style="enable-background:new 0 0 32 32;" xml:space="preserve">
<style type="text/css">
	.st0{display:none;}
	.st1{display:inline;fill:#4A445D;}
	.st2{display:inline;}
	.st3{fill:#4A445D;}
	.st4{fill:#282E36;}
	.st5{display:inline;fill:#444B57;}
	.st6{display:none;fill:#444B57;}
</style>
<g class="st0">
	<path class="st1" d="M26,4H12c-1.1,0-2,0.9-2,2v9h2V6h3v6c0,0.4,0.2,0.8,0.6,0.9c0.4,0.2,0.8,0.1,1.1-0.2l2.3-2.3l2.3,2.3
		c0.2,0.2,0.4,0.3,0.7,0.3c0.1,0,0.3,0,0.4-0.1c0.4-0.2,0.6-0.5,0.6-0.9V6h3l0,12h-7v2h7c1.1,0,2-0.9,2-2V6C28,4.9,27.1,4,26,4z
		 M21,9.6l-1.3-1.3C19.5,8.1,19.3,8,19,8s-0.5,0.1-0.7,0.3L17,9.6V6h4V9.6z"/>
	<path class="st1" d="M24,21h-7.6l0.3-0.3c0.3-0.3,0.4-0.8,0.2-1.2l-1-2c-0.2-0.4-0.7-0.7-1.2-0.5l-4.8,1.6C9.8,18.3,9.4,18,9,18H5
		c-0.6,0-1,0.4-1,1v8c0,0.6,0.4,1,1,1h4c0.6,0,1-0.4,1-1h11c0.3,0,0.6-0.1,0.8-0.4l3-4c0.2-0.3,0.3-0.7,0.1-1
		C24.7,21.2,24.4,21,24,21z M6,26v-6h2v6H6z M20.5,25H10v-4.3l4.5-1.5l0.3,0.6l-1.5,1.5C13.1,21.5,13,21.7,13,22h0v1h9L20.5,25z"/>
</g>
<g class="st0">
	<path class="st1" d="M22.8,6.4C22.6,6.1,22.3,6,22,6H10C9.7,6,9.4,6.1,9.2,6.4C9,6.6,9,6.9,9,7.2l2,9l2-0.4L11.2,8h3l0.8,4h2l0.8-4
		h3L19,15.8l2,0.4l2-9C23,6.9,23,6.6,22.8,6.4z"/>
	<g class="st2">
		<path class="st3" d="M20,26c-0.2,0-0.3,0-0.4-0.1L16,24.1l-3.6,1.8c-0.4,0.2-0.8,0.1-1.1-0.1c-0.3-0.2-0.4-0.6-0.3-1l0.9-3.6
			l-1.8-2.6c-0.2-0.3-0.2-0.7-0.1-1c0.2-0.3,0.5-0.5,0.9-0.5h2.4l1.7-3.4c0.3-0.7,1.4-0.7,1.8,0l1.7,3.4H21c0.4,0,0.7,0.2,0.9,0.5
			s0.2,0.7,0,1l-1.8,2.6l0.9,3.6c0.1,0.4,0,0.8-0.3,1C20.4,25.9,20.2,26,20,26z M16,22c0.2,0,0.3,0,0.4,0.1l2.1,1L18,21.2
			c-0.1-0.3,0-0.6,0.1-0.8l1-1.4H18c-0.4,0-0.7-0.2-0.9-0.6L16,16.2l-1.1,2.2C14.7,18.8,14.4,19,14,19h-1.1l1,1.4
			C14,20.7,14,21,14,21.2l-0.5,1.9l2.1-1C15.7,22,15.8,22,16,22z"/>
	</g>
</g>
<g class="st0">
	<g class="st2">
		<path class="st3" d="M19,19c-0.2,0-0.3,0-0.4-0.1C18.2,18.7,18,18.4,18,18v-2h-1v-2h2c0.6,0,1,0.4,1,1v1l2.4-1.8
			c0.2-0.1,0.4-0.2,0.6-0.2h3V7H16v3h-2V7c0-1.1,0.9-2,2-2h10c1.1,0,2,0.9,2,2v7c0,1.1-0.9,2-2,2h-2.7l-3.7,2.8
			C19.4,18.9,19.2,19,19,19z"/>
	</g>
	<g class="st2">
		<path class="st3" d="M12,19c-2.2,0-4-1.8-4-4s1.8-4,4-4s4,1.8,4,4S14.2,19,12,19z M12,13c-1.1,0-2,0.9-2,2c0,1.1,0.9,2,2,2
			s2-0.9,2-2C14,13.9,13.1,13,12,13z"/>
	</g>
	<g class="st2">
		<path class="st3" d="M20,27H4v-1c0-3.5,3.3-6,8-6s8,2.5,8,6V27z M6.2,25h11.7c-0.6-1.8-2.8-3-5.8-3S6.8,23.2,6.2,25z"/>
	</g>
</g>
<g class="st0">
	<path class="st1" d="M6,16c0,5.5,4.5,10,10,10v-2c-1.1,0-2.1-0.2-3-0.6V20h3v-2h-3v-4h3v-2h-3V8.6C13.9,8.2,14.9,8,16,8V6
		C10.5,6,6,10.5,6,16z M11,22.2c-0.8-0.6-1.4-1.4-1.9-2.2H11V22.2z M11,18H8.3C8.1,17.4,8,16.7,8,16s0.1-1.4,0.3-2H11V18z M11,9.8
		V12H9.1C9.6,11.1,10.2,10.4,11,9.8z"/>
	<path class="st1" d="M25,9c0-1.7-1.3-3-3-3s-3,1.3-3,3s1.3,3,3,3S25,10.7,25,9z M22,10c-0.6,0-1-0.4-1-1s0.4-1,1-1s1,0.4,1,1
		S22.6,10,22,10z"/>
	<path class="st1" d="M22,12c-2.8,0-5,2.2-5,5v3c0,0.6,0.4,1,1,1h1v4c0,0.6,0.4,1,1,1h4c0.6,0,1-0.4,1-1v-4h1c0.6,0,1-0.4,1-1v-3
		C27,14.2,24.8,12,22,12z M25,19h-1c-0.6,0-1,0.4-1,1v4h-2v-4c0-0.6-0.4-1-1-1h-1v-2c0-1.7,1.3-3,3-3s3,1.3,3,3V19z"/>
</g>
<g class="st0">
	<path class="st1" d="M25.6,11c0-0.5-0.2-1-0.6-1.4l-2.3-2.2c-0.8-0.7-2.1-0.7-2.8,0.1l-2.9,3v2.9l4.3-4.6l2.3,2.2l-6.6,7V21
		l8.1-8.6C25.5,12,25.7,11.5,25.6,11z"/>
	<path class="st1" d="M14,6H8C6.9,6,6,6.9,6,8v16c0,1.1,0.9,2,2,2h6c1.1,0,2-0.9,2-2V8C16,6.9,15.1,6,14,6z M8,24V8h6l0,16H8z"/>
	<rect x="9" y="10" class="st1" width="4" height="4"/>
	<rect x="9" y="16" class="st1" width="4" height="4"/>
	<circle class="st1" cx="11" cy="22" r="1"/>
	<path class="st1" d="M26.9,21.9l-0.4-3.2c-0.1-0.5-0.3-1-0.7-1.3c-0.4-0.3-0.9-0.5-1.5-0.4L22,17.3l0.2,2l2.3-0.3l0.4,3.2L17,23.1
		v2l8.1-0.9c0.5-0.1,1-0.3,1.3-0.7C26.8,23,27,22.5,26.9,21.9z"/>
</g>
<g class="st0">
	<g class="st2">
		<path class="st3" d="M16,23c-0.4,0-0.7-0.2-0.9-0.6C14.4,20.9,11,13.3,11,11c0-2.8,2.2-5,5-5s5,2.2,5,5c0,2.3-3.4,9.9-4.1,11.4
			C16.8,22.8,16.4,23,16,23z M16,8c-1.7,0-3,1.3-3,3c0,1.2,1.6,5.3,3,8.5c1.4-3.3,3-7.3,3-8.5C19,9.3,17.7,8,16,8z"/>
	</g>
	<g class="st2">
		<circle class="st3" cx="16" cy="11" r="1.5"/>
	</g>
	<g class="st2">
		<path class="st3" d="M23.5,26h-15c-0.7,0-1.3-0.3-1.7-0.9c-0.4-0.6-0.4-1.3-0.2-1.9l2.1-5c0.3-0.7,1-1.2,1.8-1.2h0.8v2h-0.8
			l-2.1,5h15l-2.1-5h-0.9v-2h0.9c0.8,0,1.5,0.5,1.8,1.2l2.1,5c0.3,0.6,0.2,1.3-0.2,1.9C24.8,25.7,24.2,26,23.5,26z"/>
	</g>
</g>
<g class="st0">
	<polygon class="st1" points="14,19 20,16 14,13 	"/>
	<path class="st1" d="M25,6H7C5.9,6,5,6.9,5,8v16c0,1.1,0.9,2,2,2h18c1.1,0,2-0.9,2-2V8C27,6.9,26.1,6,25,6z M7,24V8h18l0,16H7z"/>
	<rect x="9" y="9" class="st1" width="2" height="2"/>
	<rect x="13" y="9" class="st1" width="2" height="2"/>
	<rect x="17" y="9" class="st1" width="2" height="2"/>
	<rect x="21" y="9" class="st1" width="2" height="2"/>
	<rect x="9" y="21" class="st1" width="2" height="2"/>
	<rect x="13" y="21" class="st1" width="2" height="2"/>
	<rect x="17" y="21" class="st1" width="2" height="2"/>
	<rect x="21" y="21" class="st1" width="2" height="2"/>
</g>
<g class="st0">
	<path class="st1" d="M24,6H8C6.9,6,6,6.9,6,8v10c0,1.1,0.9,2,2,2h7v4h-5v2h12v-2h-5v-4h7c1.1,0,2-0.9,2-2V8C26,6.9,25.1,6,24,6z
		 M24,8l0,4H8V8H24z M8,18v-4h16l0,4H8z"/>
	<rect x="9" y="9" class="st1" width="5" height="2"/>
	<rect x="9" y="15" class="st1" width="5" height="2"/>
	<circle class="st1" cx="24" cy="25" r="1"/>
	<circle class="st1" cx="8" cy="25" r="1"/>
	<circle class="st1" cx="19" cy="10" r="1"/>
	<circle class="st1" cx="22" cy="10" r="1"/>
	<circle class="st1" cx="19" cy="16" r="1"/>
	<circle class="st1" cx="22" cy="16" r="1"/>
</g>
<g>
	<polygon class="st4" points="14,19 20,16 14,13 	"/>
	<path class="st4" d="M25,6H7C5.9,6,5,6.9,5,8v16c0,1.1,0.9,2,2,2h18c1.1,0,2-0.9,2-2V8C27,6.9,26.1,6,25,6z M7,24V8h18l0,16H7z"/>
	<rect x="9" y="9" class="st4" width="2" height="2"/>
	<rect x="13" y="9" class="st4" width="2" height="2"/>
	<rect x="17" y="9" class="st4" width="2" height="2"/>
	<rect x="21" y="9" class="st4" width="2" height="2"/>
	<rect x="9" y="21" class="st4" width="2" height="2"/>
	<rect x="13" y="21" class="st4" width="2" height="2"/>
	<rect x="17" y="21" class="st4" width="2" height="2"/>
	<rect x="21" y="21" class="st4" width="2" height="2"/>
</g>
<g class="st0">
	<path class="st5" d="M19,7v1.1c-1.1,0.2-2,1.2-2,2.4c0,1.4,1.1,2.5,2.5,2.5h1c0.3,0,0.5,0.2,0.5,0.5c0,0.3-0.2,0.5-0.5,0.5H19v3h2
		v-1.1c1.1-0.2,2-1.2,2-2.4c0-1.4-1.1-2.5-2.5-2.5h-1c-0.3,0-0.5-0.2-0.5-0.5c0-0.3,0.2-0.5,0.5-0.5H23V8h-2V7H19z"/>
	<path class="st5" d="M23,22c0,0.6-0.4,1-1,1h-5v2h4c0,0.6-0.4,1-1,1h-7.6L10,23.6v-5.2l2.4-2.4H16v1c0,0.6-0.4,1-1,1h-2v2h2
		c1.7,0,3-1.3,3-3v-2c0-0.6-0.4-1-1-1h-5c-0.3,0-0.5,0.1-0.7,0.3l-1.8,1.8C9.3,16.1,9.2,16,9,16H5c-0.6,0-1,0.4-1,1v8
		c0,0.6,0.4,1,1,1h4c0.2,0,0.3-0.1,0.5-0.1l1.8,1.8c0.2,0.2,0.4,0.3,0.7,0.3h8c1.7,0,3-1.3,3-3v-0.2c1.2-0.4,2-1.5,2-2.8v-1h-2V22z
		 M8,24H6v-6h2V24z"/>
	<path class="st5" d="M20,4c-4.4,0-8,3.6-8,8c0,0.3,0,0.7,0.1,1h2C14,12.7,14,12.3,14,12c0-3.3,2.7-6,6-6s6,2.7,6,6c0,3.3-2.7,6-6,6
		c-0.3,0-0.7,0-1-0.1v2c0.3,0,0.7,0.1,1,0.1c4.4,0,8-3.6,8-8S24.4,4,20,4z"/>
</g>
<path class="st6" d="M19.4,6H10C8.9,6,8,6.9,8,8v16c0,1.1,0.9,2,2,2h12c1.1,0,2-0.9,2-2V10.6L19.4,6z M22,24H10V8h2v9l2-2l2,2V8h2v4
	h4L22,24z"/>
<path class="st6" d="M24,7v1.2L8,11.8V11H6v8h2v-0.8l1,0.2V22c0,0.5,0.3,0.9,0.8,1l4,1c0.1,0,0.2,0,0.2,0c0.3,0,0.6-0.1,0.8-0.4
	l2.5-3.3l6.7,1.5V23h2V7H24z M13.6,21.9L11,21.2v-2.3l4.1,0.9L13.6,21.9z M8,16.2v-2.4l16-3.6v9.5L8,16.2z"/>
</svg>
