<?xml version="1.0" encoding="utf-8"?>
<!-- Generator: Adobe Illustrator 17.0.0, SVG Export Plug-In . SVG Version: 6.00 Build 0)  -->
<!DOCTYPE svg PUBLIC "-//W3C//DTD SVG 1.1//EN" "http://www.w3.org/Graphics/SVG/1.1/DTD/svg11.dtd">
<svg version="1.1" id="Camada_1" xmlns="http://www.w3.org/2000/svg" xmlns:xlink="http://www.w3.org/1999/xlink" x="0px" y="0px"
	 width="500px" height="500px" viewBox="0 0 500 500" enable-background="new 0 0 500 500" xml:space="preserve">
<g id="Camada_1_1_" display="none">
	<g id="Econauta" display="inline">
		<g>
			<path fill="#80D6A3" d="M142.765,73.168c37.025-22.54,81.293-32.997,124.476-29.183c40.53,3.195,79.957,18.919,111.657,44.364
				c32.475,25.968,57.106,61.754,68.996,101.645c10.205,34.14,12.393,71.301,2.537,105.77
				c-9.837,35.031-31.642,66.498-60.824,88.187c-50.309,38.613-123.198,44.074-178.716,13.478
				c-41.053-21.785-72.075-61.56-83.132-106.699c-5.693-23.431-7.184-48.315-1.162-71.843c9.295-38.148,37.626-70.913,73.76-86.095
				c26.472-11.251,56.777-13.129,84.43-5.228c31.99,8.888,59.856,31.119,76.122,59.992c10.844,19.016,16.402,40.937,16.383,62.78
				c-0.058,6.293-3.408,12.238-8.579,15.763c-23.509,17.448-52.304,29.279-81.912,28.505c-22.405-0.504-44.229-9.508-60.999-24.264
				c-11.096-9.818-20.759-21.34-28.214-34.159c-5.035-9.566-0.019-22.657,10.244-26.22c8.501-3.234,18.861,0.329,23.296,8.327
				c10.438,16.421,25.174,31.681,44.558,36.696c21.979,5.635,44.752-2.847,63.245-14.543c-2.982-25.968-17.738-50.426-39.678-64.697
				c-19.829-13.497-45.294-18.145-68.648-12.839c-27.072,5.926-50.658,25.252-61.967,50.522
				c-10.457,22.192-9.605,48.044-3.234,71.262c8.579,31.429,29.744,59.023,57.513,75.967c25.174,15.511,55.867,21.746,85.108,17.389
				c37.354-5.151,71.572-27.904,91.343-59.914c14.833-23.605,21.572-52.091,19.074-79.84
				c-2.672-39.775-20.197-78.311-48.295-106.544c-24.847-25.407-57.941-42.642-93.03-48.277
				c-37.103-6.274-76.219,0.716-109.004,19.113c-37.335,20.662-66.285,55.945-79.066,96.668
				c-11.445,35.186-9.353,73.315-1.452,109.023c10.786,46.475,39.058,90.84,82.164,113.244c4.764,2.479,7.978,7.32,8.966,12.548
				c2.595,10.186-5.325,21.359-15.743,22.521c-8.927,1.356-16.382-4.609-23.625-8.811c-48.373-30.945-80.073-83.83-90.646-139.697
				c-7.397-39.523-8.482-81.235,3.95-119.887C67.34,140.557,100.24,99.02,142.765,73.168L142.765,73.168z"/>
		</g>
	</g>
	<g id="Mufasa" display="inline">
		<path fill="#4B455F" d="M122.899,161.268c9.735-13.53,26.069-22.112,42.786-21.964c16.73-0.223,33.262,8.198,42.985,21.802
			c13.307,18.119,26.453,36.374,39.772,54.493c0.93,1.935,3.088,0.744,3.733-0.732c13.059-17.921,26.081-35.878,39.202-53.774
			c9.475-13.233,25.411-21.629,41.707-21.753c13.568-0.434,27.172,4.824,37.081,14.088c4.799,4.365,8.396,9.835,12.216,15.043
			c26.13,35.854,52.273,71.707,78.404,107.585c6.548,8.917,10.467,19.868,10.455,30.98c0.36,14.15-5.482,28.301-15.589,38.197
			c-9.909,10.058-24.084,15.775-38.197,15.403c-15.453-0.099-30.57-7.553-40.231-19.57c-12.315-16.271-23.774-33.187-36.35-49.235
			c-11.844-16.259-23.625-32.567-35.531-48.776c-4.13-6.375-13.158-8.545-19.644-4.527c-7.168,3.795-9.611,13.853-5.134,20.562
			c7.602,11.62,18.144,21.964,21.108,36.015c3.659,13.704,0.471,28.14-5.705,40.603c-8.123,10.79-19.198,19.942-32.542,23.229
			c-19.682,5.42-42.092-1.984-54.655-18.069c-12.03-15.874-23.266-32.344-35.444-48.094c-11.881-16.11-23.576-32.344-35.37-48.516
			c-2.294-3.113-5.147-6.126-9.016-7.143c-5.655-1.773-12.141,0.36-15.8,4.986c-3.795,4.638-4.266,11.72-1.005,16.767
			c4.961,7.751,11.124,14.684,15.787,22.633c7.714,13.357,9.115,30.211,3.597,44.622c-1.005,2.803-1.972,5.618-2.939,8.433
			c-6.908,9.153-15.539,17.499-26.279,21.951c-13.444,5.717-29.268,5.556-42.538-0.583c-14.448-6.499-25.61-19.843-29.405-35.221
			c-3.944-15.242-0.533-32.059,8.892-44.646C67.128,237.787,95.008,199.528,122.899,161.268L122.899,161.268z"/>
	</g>
</g>
<g id="Camada_2">
	<g>
		<path fill="#FED086" d="M123.774,58.99c8.141-2.983,16.857,5.842,14.011,13.942c-1.943,7.881-13.067,10.809-18.54,4.761
			C113.266,72.221,115.948,61.111,123.774,58.99 M156.831,59.141c1.998-0.725,4.173-0.643,6.28-0.711
			c36.943,0.055,73.885,0.014,110.814,0.027c14.435-0.096,29.007,0.397,43.113,3.667c25.86,5.514,50.324,18.54,68.344,38.023
			c18.936,20.086,30.348,46.985,31.88,74.528c1.656,25.504-4.775,51.501-18.307,73.187c-15.885,25.928-41.731,45.617-71.053,53.799
			c-18.375,5.623-37.75,4.584-56.727,4.748c-17.103,0.315-31.976,15.475-32.291,32.523c-0.137,22.822,0,45.658-0.055,68.481
			c0.547,18.512-16.186,35.095-34.726,34.151c-14.613-0.055-29.239,0.109-43.852-0.068c-6.239,0.027-11.452-6.048-10.741-12.205
			c0.369-5.514,5.336-10.289,10.919-10.207c7.703-0.246,15.42,0.15,23.123-0.137c5.897-0.109,10.878-5.651,10.549-11.507
			c-0.027-5.569-4.748-10.645-10.358-10.836c-4.666-0.096-9.414-2.572-11.096-7.115c-2.791-6.225,1.491-14.298,8.278-15.283
			c8.565-0.698,17.185,0.151,25.764-0.397c5.637-0.506,10.125-5.979,9.769-11.589c-0.11-5.678-5.104-10.754-10.823-10.741
			c-15.092-0.205-30.183,0.096-45.275-0.123c-5.829,0.068-10.919-5.186-10.891-10.973c-0.274-5.966,4.939-11.562,10.973-11.439
			c7.676-0.26,15.365,0.151,23.041-0.137c6.007-0.068,11.055-5.774,10.618-11.726c-0.137-5.459-4.789-10.399-10.289-10.604
			c-5.131-0.055-10.303-3.147-11.575-8.333c-2.08-6.527,3.133-14.12,10.043-14.23c15.447-0.328,30.909,0.137,46.356-0.205
			c8.155-0.301,13.108-10.782,8.333-17.349c-2.791-4.707-8.634-5.487-13.6-5.104c-20.975,0-41.95,0.096-62.925-0.041
			c-7.662,0.233-13.313-8.675-10.111-15.557c1.779-4.556,6.691-7.279,11.493-6.91c47.888-0.027,95.763,0.027,143.652-0.027
			c6.39,0.369,12.123-5.569,11.534-11.945c-0.205-5.897-5.678-10.864-11.548-10.549c-22.343-0.123-44.687,0.11-67.03-0.096
			c-6.841,0.041-12.218-7.224-10.453-13.765c1.04-4.748,5.446-8.565,10.358-8.62c11.438-0.26,22.891,0.096,34.329-0.137
			c6.745,0.068,12.218-6.992,10.604-13.518c-0.944-4.994-5.623-8.948-10.727-8.907c-22.33-0.164-44.659,0.041-66.989-0.096
			c-6.157,0.301-11.644-5.268-11.384-11.384c-0.082-5.979,5.309-11.315,11.302-11.069c40.637-0.096,81.274,0,121.91-0.041
			c5.541,0.397,10.96-3.735,11.822-9.263c1.396-6.499-4.091-13.327-10.754-13.217c-29.089-0.123-58.191-0.041-87.28-0.041
			c-3.503,0.123-7.306-0.411-9.892-3.024c-4.584-4.036-4.761-11.794-0.438-16.09c2.271-2.449,5.637-3.53,8.935-3.421
			c18.252-0.068,36.505,0.055,54.757-0.041c5.897,0.233,11.247-4.926,11.315-10.823c0.424-6.226-5.158-11.945-11.384-11.658
			c-44.208-0.068-88.416,0-132.624-0.027c-5.268,0.451-10.59-2.983-11.931-8.155C148.198,67.378,151.413,61.002,156.831,59.141
			 M145.789,104.183c7.826-3.161,16.72,4.898,14.544,12.998c-1.341,8.045-12.301,11.781-18.198,6.089
			C135.692,118.112,137.854,106.564,145.789,104.183 M178.737,104.389c8.305-1.847,17.035-0.438,25.518-0.848
			c6.267-0.602,12.246,4.679,12.205,11.001c0.287,5.938-4.885,11.521-10.878,11.452c-7.744,0.109-15.488,0.164-23.233-0.027
			c-5.336-0.096-9.974-4.679-10.467-9.933C171.266,111.189,174.194,106.208,178.737,104.389 M111.666,149.472
			c7.416-3.475,16.569,3.516,15.338,11.575c-0.438,8.456-11.616,13.258-17.992,7.621
			C102.361,163.852,103.976,152.318,111.666,149.472 M146.952,148.925c8.1-0.711,16.282-0.205,24.423-0.287
			c5.582-0.301,10.823,4.146,11.452,9.687c1.026,6.089-3.9,12.437-10.111,12.697c-7.744,0.233-15.516,0.123-23.26,0.068
			c-5.528,0.137-10.563-4.419-11.083-9.892C137.594,155.711,141.507,150.033,146.952,148.925 M144.613,194.802
			c7.525-4.091,17.349,3.147,15.885,11.521c-0.602,8.059-11.001,12.807-17.431,7.84C136.143,209.716,137.06,198.086,144.613,194.802
			 M178.696,194.542c8.77-1.833,17.951-0.52,26.886-0.807c8.538-0.246,14.011,10.686,8.976,17.486
			c-4.337,6.814-13.272,4.679-20.045,4.98c-6.335-0.52-13.929,1.765-19.114-3.024C169.433,208.074,171.348,197.292,178.696,194.542
			 M122.611,239.721c7.471-3.735,16.898,3.38,15.557,11.575c-0.52,8.428-11.671,13.108-18.006,7.512
			C113.622,254.02,115.086,242.704,122.611,239.721 M89.5,284.614c7.991-3.612,17.39,4.802,14.9,13.149
			c-1.532,7.895-12.328,11.384-18.157,5.801C79.977,298.487,81.865,287.282,89.5,284.614 M122.543,284.819
			c5.555-1.902,11.589-0.657,17.349-0.999c6.143,0.233,13.901-1.491,18.211,4.187c5.131,5.87,1.806,16.255-5.842,17.938
			c-7.717,0.889-15.543,0.191-23.315,0.41c-4.72,0.424-9.714-1.792-11.794-6.184C114.224,294.697,116.838,287.24,122.543,284.819
			 M122.529,329.902c7.58-3.872,17.144,3.489,15.612,11.753c-0.698,8.223-11.534,12.793-17.842,7.402
			C113.663,344.351,114.977,332.94,122.529,329.902 M89.582,374.726c7.566-3.325,16.583,4.064,15.023,12.109
			c-0.78,8.018-11.206,12.574-17.541,7.512C79.922,389.653,81.468,377.462,89.582,374.726 M122.475,374.986
			c5.541-1.957,11.589-0.67,17.336-1.026c5.61,0.342,12.232-1.355,16.87,2.736c5.213,4.214,5.131,13.039-0.123,17.185
			c-5.062,4.159-12.082,2.148-18.061,2.613c-6.54-0.493-14.681,1.874-19.634-3.694C113.745,387.56,115.729,377.818,122.475,374.986
			 M122.447,420.083c7.101-3.667,16.392,2.572,15.79,10.508c0.205,8.305-10.152,13.97-16.994,9.263
			C113.759,435.654,114.512,423.353,122.447,420.083L122.447,420.083z"/>
	</g>
</g>
</svg>
