<?xml version="1.0" encoding="utf-8"?>
<!-- Generator: Adobe Illustrator 20.1.0, SVG Export Plug-In . SVG Version: 6.00 Build 0)  -->
<svg version="1.1" id="Camada_1" xmlns="http://www.w3.org/2000/svg" xmlns:xlink="http://www.w3.org/1999/xlink" x="0px" y="0px"
	 viewBox="0 0 500 500" style="enable-background:new 0 0 500 500;" xml:space="preserve">
<style type="text/css">
	.st0{display:none;}
	.st1{display:inline;}
	.st2{fill:#80D6A3;}
	.st3{fill:#4B455F;}
	.st4{fill:#282E36;}
</style>
<g id="Camada_1_1_" class="st0">
	<g id="Econauta" class="st1">
		<g>
			<path class="st2" d="M142.8,73.2c37-22.5,81.3-33,124.5-29.2c40.5,3.2,80,18.9,111.7,44.4c32.5,26,57.1,61.8,69,101.6
				c10.2,34.1,12.4,71.3,2.5,105.8c-9.8,35-31.6,66.5-60.8,88.2c-50.3,38.6-123.2,44.1-178.7,13.5c-41.1-21.8-72.1-61.6-83.1-106.7
				c-5.7-23.4-7.2-48.3-1.2-71.8c9.3-38.1,37.6-70.9,73.8-86.1c26.5-11.3,56.8-13.1,84.4-5.2c32,8.9,59.9,31.1,76.1,60
				c10.8,19,16.4,40.9,16.4,62.8c-0.1,6.3-3.4,12.2-8.6,15.8c-23.5,17.4-52.3,29.3-81.9,28.5c-22.4-0.5-44.2-9.5-61-24.3
				c-11.1-9.8-20.8-21.3-28.2-34.2c-5-9.6,0-22.7,10.2-26.2c8.5-3.2,18.9,0.3,23.3,8.3c10.4,16.4,25.2,31.7,44.6,36.7
				c22,5.6,44.8-2.8,63.2-14.5c-3-26-17.7-50.4-39.7-64.7c-19.8-13.5-45.3-18.1-68.6-12.8c-27.1,5.9-50.7,25.3-62,50.5
				c-10.5,22.2-9.6,48-3.2,71.3c8.6,31.4,29.7,59,57.5,76c25.2,15.5,55.9,21.7,85.1,17.4c37.4-5.2,71.6-27.9,91.3-59.9
				c14.8-23.6,21.6-52.1,19.1-79.8c-2.7-39.8-20.2-78.3-48.3-106.5c-24.8-25.4-57.9-42.6-93-48.3c-37.1-6.3-76.2,0.7-109,19.1
				c-37.3,20.7-66.3,55.9-79.1,96.7c-11.4,35.2-9.4,73.3-1.5,109c10.8,46.5,39.1,90.8,82.2,113.2c4.8,2.5,8,7.3,9,12.5
				c2.6,10.2-5.3,21.4-15.7,22.5c-8.9,1.4-16.4-4.6-23.6-8.8C91,416.8,59.3,363.9,48.7,308.1c-7.4-39.5-8.5-81.2,4-119.9
				C67.3,140.6,100.2,99,142.8,73.2L142.8,73.2z"/>
		</g>
	</g>
	<g id="Mufasa" class="st1">
		<path class="st3" d="M122.9,161.3c9.7-13.5,26.1-22.1,42.8-22c16.7-0.2,33.3,8.2,43,21.8c13.3,18.1,26.5,36.4,39.8,54.5
			c0.9,1.9,3.1,0.7,3.7-0.7c13.1-17.9,26.1-35.9,39.2-53.8c9.5-13.2,25.4-21.6,41.7-21.8c13.6-0.4,27.2,4.8,37.1,14.1
			c4.8,4.4,8.4,9.8,12.2,15c26.1,35.9,52.3,71.7,78.4,107.6c6.5,8.9,10.5,19.9,10.5,31c0.4,14.1-5.5,28.3-15.6,38.2
			c-9.9,10.1-24.1,15.8-38.2,15.4c-15.5-0.1-30.6-7.6-40.2-19.6c-12.3-16.3-23.8-33.2-36.4-49.2c-11.8-16.3-23.6-32.6-35.5-48.8
			c-4.1-6.4-13.2-8.5-19.6-4.5c-7.2,3.8-9.6,13.9-5.1,20.6c7.6,11.6,18.1,22,21.1,36c3.7,13.7,0.5,28.1-5.7,40.6
			c-8.1,10.8-19.2,19.9-32.5,23.2c-19.7,5.4-42.1-2-54.7-18.1c-12-15.9-23.3-32.3-35.4-48.1c-11.9-16.1-23.6-32.3-35.4-48.5
			c-2.3-3.1-5.1-6.1-9-7.1c-5.7-1.8-12.1,0.4-15.8,5c-3.8,4.6-4.3,11.7-1,16.8c5,7.8,11.1,14.7,15.8,22.6
			c7.7,13.4,9.1,30.2,3.6,44.6c-1,2.8-2,5.6-2.9,8.4c-6.9,9.2-15.5,17.5-26.3,22c-13.4,5.7-29.3,5.6-42.5-0.6
			c-14.4-6.5-25.6-19.8-29.4-35.2c-3.9-15.2-0.5-32.1,8.9-44.6C67.1,237.8,95,199.5,122.9,161.3L122.9,161.3z"/>
	</g>
</g>
<g id="Camada_2">
	<g>
		<path class="st4" d="M123.8,59c8.1-3,16.9,5.8,14,13.9c-1.9,7.9-13.1,10.8-18.5,4.8C113.3,72.2,115.9,61.1,123.8,59 M156.8,59.1
			c2-0.7,4.2-0.6,6.3-0.7c36.9,0.1,73.9,0,110.8,0c14.4-0.1,29,0.4,43.1,3.7c25.9,5.5,50.3,18.5,68.3,38
			c18.9,20.1,30.3,47,31.9,74.5c1.7,25.5-4.8,51.5-18.3,73.2c-15.9,25.9-41.7,45.6-71.1,53.8c-18.4,5.6-37.8,4.6-56.7,4.7
			c-17.1,0.3-32,15.5-32.3,32.5c-0.1,22.8,0,45.7-0.1,68.5c0.5,18.5-16.2,35.1-34.7,34.2c-14.6-0.1-29.2,0.1-43.9-0.1
			c-6.2,0-11.5-6-10.7-12.2c0.4-5.5,5.3-10.3,10.9-10.2c7.7-0.2,15.4,0.1,23.1-0.1c5.9-0.1,10.9-5.7,10.5-11.5
			c0-5.6-4.7-10.6-10.4-10.8c-4.7-0.1-9.4-2.6-11.1-7.1c-2.8-6.2,1.5-14.3,8.3-15.3c8.6-0.7,17.2,0.2,25.8-0.4
			c5.6-0.5,10.1-6,9.8-11.6c-0.1-5.7-5.1-10.8-10.8-10.7c-15.1-0.2-30.2,0.1-45.3-0.1c-5.8,0.1-10.9-5.2-10.9-11
			c-0.3-6,4.9-11.6,11-11.4c7.7-0.3,15.4,0.2,23-0.1c6-0.1,11.1-5.8,10.6-11.7c-0.1-5.5-4.8-10.4-10.3-10.6
			c-5.1-0.1-10.3-3.1-11.6-8.3c-2.1-6.5,3.1-14.1,10-14.2c15.4-0.3,30.9,0.1,46.4-0.2c8.2-0.3,13.1-10.8,8.3-17.3
			c-2.8-4.7-8.6-5.5-13.6-5.1c-21,0-41.9,0.1-62.9,0c-7.7,0.2-13.3-8.7-10.1-15.6c1.8-4.6,6.7-7.3,11.5-6.9c47.9,0,95.8,0,143.7,0
			c6.4,0.4,12.1-5.6,11.5-11.9c-0.2-5.9-5.7-10.9-11.5-10.5c-22.3-0.1-44.7,0.1-67-0.1c-6.8,0-12.2-7.2-10.5-13.8
			c1-4.7,5.4-8.6,10.4-8.6c11.4-0.3,22.9,0.1,34.3-0.1c6.7,0.1,12.2-7,10.6-13.5c-0.9-5-5.6-8.9-10.7-8.9c-22.3-0.2-44.7,0-67-0.1
			c-6.2,0.3-11.6-5.3-11.4-11.4c-0.1-6,5.3-11.3,11.3-11.1c40.6-0.1,81.3,0,121.9,0c5.5,0.4,11-3.7,11.8-9.3
			c1.4-6.5-4.1-13.3-10.8-13.2c-29.1-0.1-58.2,0-87.3,0c-3.5,0.1-7.3-0.4-9.9-3c-4.6-4-4.8-11.8-0.4-16.1c2.3-2.4,5.6-3.5,8.9-3.4
			c18.3-0.1,36.5,0.1,54.8,0c5.9,0.2,11.2-4.9,11.3-10.8c0.4-6.2-5.2-11.9-11.4-11.7c-44.2-0.1-88.4,0-132.6,0
			c-5.3,0.5-10.6-3-11.9-8.2C148.2,67.4,151.4,61,156.8,59.1 M145.8,104.2c7.8-3.2,16.7,4.9,14.5,13c-1.3,8-12.3,11.8-18.2,6.1
			C135.7,118.1,137.9,106.6,145.8,104.2 M178.7,104.4c8.3-1.8,17-0.4,25.5-0.8c6.3-0.6,12.2,4.7,12.2,11c0.3,5.9-4.9,11.5-10.9,11.5
			c-7.7,0.1-15.5,0.2-23.2,0c-5.3-0.1-10-4.7-10.5-9.9C171.3,111.2,174.2,106.2,178.7,104.4 M111.7,149.5
			c7.4-3.5,16.6,3.5,15.3,11.6c-0.4,8.5-11.6,13.3-18,7.6C102.4,163.9,104,152.3,111.7,149.5 M147,148.9c8.1-0.7,16.3-0.2,24.4-0.3
			c5.6-0.3,10.8,4.1,11.5,9.7c1,6.1-3.9,12.4-10.1,12.7c-7.7,0.2-15.5,0.1-23.3,0.1c-5.5,0.1-10.6-4.4-11.1-9.9
			C137.6,155.7,141.5,150,147,148.9 M144.6,194.8c7.5-4.1,17.3,3.1,15.9,11.5c-0.6,8.1-11,12.8-17.4,7.8
			C136.1,209.7,137.1,198.1,144.6,194.8 M178.7,194.5c8.8-1.8,18-0.5,26.9-0.8c8.5-0.2,14,10.7,9,17.5c-4.3,6.8-13.3,4.7-20,5
			c-6.3-0.5-13.9,1.8-19.1-3C169.4,208.1,171.3,197.3,178.7,194.5 M122.6,239.7c7.5-3.7,16.9,3.4,15.6,11.6
			c-0.5,8.4-11.7,13.1-18,7.5C113.6,254,115.1,242.7,122.6,239.7 M89.5,284.6c8-3.6,17.4,4.8,14.9,13.1c-1.5,7.9-12.3,11.4-18.2,5.8
			C80,298.5,81.9,287.3,89.5,284.6 M122.5,284.8c5.6-1.9,11.6-0.7,17.3-1c6.1,0.2,13.9-1.5,18.2,4.2c5.1,5.9,1.8,16.3-5.8,17.9
			c-7.7,0.9-15.5,0.2-23.3,0.4c-4.7,0.4-9.7-1.8-11.8-6.2C114.2,294.7,116.8,287.2,122.5,284.8 M122.5,329.9
			c7.6-3.9,17.1,3.5,15.6,11.8c-0.7,8.2-11.5,12.8-17.8,7.4C113.7,344.4,115,332.9,122.5,329.9 M89.6,374.7
			c7.6-3.3,16.6,4.1,15,12.1c-0.8,8-11.2,12.6-17.5,7.5C79.9,389.7,81.5,377.5,89.6,374.7 M122.5,375c5.5-2,11.6-0.7,17.3-1
			c5.6,0.3,12.2-1.4,16.9,2.7c5.2,4.2,5.1,13-0.1,17.2c-5.1,4.2-12.1,2.1-18.1,2.6c-6.5-0.5-14.7,1.9-19.6-3.7
			C113.7,387.6,115.7,377.8,122.5,375 M122.4,420.1c7.1-3.7,16.4,2.6,15.8,10.5c0.2,8.3-10.2,14-17,9.3
			C113.8,435.7,114.5,423.4,122.4,420.1L122.4,420.1z"/>
	</g>
</g>
</svg>
