<?xml version="1.0" encoding="utf-8"?>
<!-- Generator: Adobe Illustrator 20.1.0, SVG Export Plug-In . SVG Version: 6.00 Build 0)  -->
<svg version="1.1" id="Camada_1" xmlns="http://www.w3.org/2000/svg" xmlns:xlink="http://www.w3.org/1999/xlink" x="0px" y="0px"
	 viewBox="0 0 120 120" style="enable-background:new 0 0 120 120;" xml:space="preserve">
<style type="text/css">
	.st0{fill:#282E36;}
	.st1{display:none;}
	.st2{display:inline;fill:#80D6A3;}
	.st3{fill:#FED086;}
</style>
<g>
	<g id="Camada_1_1_">
		<path class="st0" d="M26.5,3.8C37.3,2.6,48.2,3.1,59,3c11.5,0.1,23-0.4,34.5,0.8c7.2,0.8,14.9,3.4,18.8,9.9
			c4.7,8.2,4.4,18,4.7,27.2c0,14.3,0.2,28.7-0.1,43c-0.4,7.8-0.6,16.1-5,22.9c-3.4,5.4-9.8,8-15.8,8.9c-9.6,1.5-19.3,1.1-29,1.2
			c-12-0.1-24,0.3-36-0.4c-7-0.5-14.6-1.6-20.1-6.5c-5.3-4.8-6.7-12.2-7.3-19C2.7,79.4,3.1,67.7,3,56.1c0.1-9.6-0.2-19.3,0.7-28.8
			c0.7-6,2.2-12.4,6.6-16.8C14.6,6.1,20.7,4.5,26.5,3.8"/>
	</g>
</g>
<g class="st1">
	<path class="st2" d="M37,22.1c7.9-4.8,17.4-7.1,26.7-6.3c8.7,0.7,17.1,4.1,23.9,9.5c7,5.6,12.2,13.2,14.8,21.8
		c2.2,7.3,2.7,15.3,0.5,22.7c-2.1,7.5-6.8,14.2-13,18.9c-10.8,8.3-26.4,9.4-38.3,2.9c-8.8-4.7-15.4-13.2-17.8-22.8
		c-1.2-5-1.5-10.3-0.2-15.4c2-8.2,8.1-15.2,15.8-18.4c5.7-2.4,12.2-2.8,18.1-1.1c6.9,1.9,12.8,6.7,16.3,12.8
		c2.3,4.1,3.5,8.8,3.5,13.4c0,1.3-0.7,2.6-1.8,3.4c-5,3.7-11.2,6.3-17.5,6.1c-4.8-0.1-9.5-2-13.1-5.2c-2.4-2.1-4.4-4.6-6-7.3
		c-1.1-2,0-4.9,2.2-5.6c1.8-0.7,4,0.1,5,1.8c2.2,3.5,5.4,6.8,9.5,7.9c4.7,1.2,9.6-0.6,13.5-3.1c-0.6-5.6-3.8-10.8-8.5-13.9
		c-4.2-2.9-9.7-3.9-14.7-2.8C50,42.6,45,46.8,42.6,52.2c-2.2,4.8-2.1,10.3-0.7,15.3c1.8,6.7,6.4,12.6,12.3,16.3
		c5.4,3.3,12,4.7,18.2,3.7c8-1.1,15.3-6,19.6-12.8c3.2-5.1,4.6-11.2,4.1-17.1c-0.6-8.5-4.3-16.8-10.3-22.8
		c-5.3-5.4-12.4-9.1-19.9-10.3c-7.9-1.3-16.3,0.2-23.3,4.1c-8,4.4-14.2,12-16.9,20.7c-2.5,7.5-2,15.7-0.3,23.3
		c2.3,10,8.4,19.5,17.6,24.3c1,0.5,1.7,1.6,1.9,2.7c0.6,2.2-1.1,4.6-3.4,4.8c-1.9,0.3-3.5-1-5.1-1.9C26,95.9,19.3,84.5,17,72.6
		C15.3,64,15.1,55,17.7,46.8C20.9,36.6,27.9,27.7,37,22.1L37,22.1z"/>
</g>
<g>
	<path class="st3" d="M32.9,19c1.7-0.6,3.6,1.3,3,3c-0.4,1.7-2.8,2.3-4,1C30.7,21.9,31.2,19.5,32.9,19 M40,19.1
		c0.4-0.2,0.9-0.1,1.3-0.2c7.9,0,15.8,0,23.8,0c3.1,0,6.2,0.1,9.2,0.8c5.5,1.2,10.8,4,14.7,8.2c4.1,4.3,6.5,10.1,6.8,16
		c0.4,5.5-1,11-3.9,15.7c-3.4,5.6-9,9.8-15.2,11.5c-3.9,1.2-8.1,1-12.2,1c-3.7,0.1-6.9,3.3-6.9,7c0,4.9,0,9.8,0,14.7
		c0.1,4-3.5,7.5-7.4,7.3c-3.1,0-6.3,0-9.4,0c-1.3,0-2.5-1.3-2.3-2.6c0.1-1.2,1.1-2.2,2.3-2.2c1.7-0.1,3.3,0,5,0
		c1.3,0,2.3-1.2,2.3-2.5c0-1.2-1-2.3-2.2-2.3c-1,0-2-0.6-2.4-1.5c-0.6-1.3,0.3-3.1,1.8-3.3c1.8-0.2,3.7,0,5.5-0.1
		c1.2-0.1,2.2-1.3,2.1-2.5c0-1.2-1.1-2.3-2.3-2.3c-3.2,0-6.5,0-9.7,0c-1.3,0-2.3-1.1-2.3-2.4c-0.1-1.3,1.1-2.5,2.4-2.5
		c1.6-0.1,3.3,0,4.9,0c1.3,0,2.4-1.2,2.3-2.5c0-1.2-1-2.2-2.2-2.3c-1.1,0-2.2-0.7-2.5-1.8c-0.4-1.4,0.7-3,2.2-3.1
		c3.3-0.1,6.6,0,9.9,0c1.7-0.1,2.8-2.3,1.8-3.7c-0.6-1-1.9-1.2-2.9-1.1c-4.5,0-9,0-13.5,0c-1.6,0-2.9-1.9-2.2-3.3
		c0.4-1,1.4-1.6,2.5-1.5c10.3,0,20.5,0,30.8,0c1.4,0.1,2.6-1.2,2.5-2.6c0-1.3-1.2-2.3-2.5-2.3c-4.8,0-9.6,0-14.4,0
		c-1.5,0-2.6-1.5-2.2-3c0.2-1,1.2-1.8,2.2-1.8c2.5-0.1,4.9,0,7.4,0c1.4,0,2.6-1.5,2.3-2.9c-0.2-1.1-1.2-1.9-2.3-1.9
		c-4.8,0-9.6,0-14.4,0c-1.3,0.1-2.5-1.1-2.4-2.4c0-1.3,1.1-2.4,2.4-2.4c8.7,0,17.4,0,26.2,0c1.2,0.1,2.4-0.8,2.5-2
		c0.3-1.4-0.9-2.9-2.3-2.8c-6.2,0-12.5,0-18.7,0c-0.8,0-1.6-0.1-2.1-0.6c-1-0.9-1-2.5-0.1-3.5c0.5-0.5,1.2-0.8,1.9-0.7
		c3.9,0,7.8,0,11.7,0c1.3,0,2.4-1.1,2.4-2.3c0.1-1.3-1.1-2.6-2.4-2.5c-9.5,0-19,0-28.5,0c-1.1,0.1-2.3-0.6-2.6-1.7
		C38.2,20.8,38.9,19.5,40,19.1 M37.6,28.7c1.7-0.7,3.6,1.1,3.1,2.8c-0.3,1.7-2.6,2.5-3.9,1.3C35.5,31.7,35.9,29.2,37.6,28.7
		 M44.7,28.8c1.8-0.4,3.7-0.1,5.5-0.2c1.3-0.1,2.6,1,2.6,2.4c0.1,1.3-1,2.5-2.3,2.5c-1.7,0-3.3,0-5,0c-1.1,0-2.1-1-2.2-2.1
		C43.1,30.2,43.7,29.2,44.7,28.8 M30.3,38.4c1.6-0.7,3.6,0.8,3.3,2.5c-0.1,1.8-2.5,2.8-3.9,1.6C28.3,41.5,28.7,39,30.3,38.4
		 M37.9,38.3c1.7-0.2,3.5,0,5.2-0.1c1.2-0.1,2.3,0.9,2.5,2.1c0.2,1.3-0.8,2.7-2.2,2.7c-1.7,0-3.3,0-5,0c-1.2,0-2.3-0.9-2.4-2.1
		C35.9,39.8,36.7,38.6,37.9,38.3 M37.4,48.2c1.6-0.9,3.7,0.7,3.4,2.5c-0.1,1.7-2.4,2.7-3.7,1.7C35.6,51.4,35.8,48.9,37.4,48.2
		 M44.7,48.1c1.9-0.4,3.9-0.1,5.8-0.2c1.8-0.1,3,2.3,1.9,3.8c-0.9,1.5-2.8,1-4.3,1.1c-1.4-0.1-3,0.4-4.1-0.6
		C42.7,51,43.1,48.7,44.7,48.1 M32.7,57.8c1.6-0.8,3.6,0.7,3.3,2.5c-0.1,1.8-2.5,2.8-3.9,1.6C30.7,60.9,31.1,58.4,32.7,57.8
		 M25.6,67.4c1.7-0.8,3.7,1,3.2,2.8c-0.3,1.7-2.6,2.4-3.9,1.2C23.5,70.4,23.9,68,25.6,67.4 M32.7,67.5c1.2-0.4,2.5-0.1,3.7-0.2
		c1.3,0.1,3-0.3,3.9,0.9c1.1,1.3,0.4,3.5-1.3,3.8c-1.7,0.2-3.3,0-5,0.1c-1,0.1-2.1-0.4-2.5-1.3C30.9,69.6,31.4,68,32.7,67.5
		 M32.7,77.1c1.6-0.8,3.7,0.7,3.3,2.5c-0.2,1.8-2.5,2.7-3.8,1.6C30.8,80.2,31,77.8,32.7,77.1 M25.6,86.8c1.6-0.7,3.6,0.9,3.2,2.6
		c-0.2,1.7-2.4,2.7-3.8,1.6C23.5,90,23.8,87.3,25.6,86.8 M32.6,86.8c1.2-0.4,2.5-0.1,3.7-0.2c1.2,0.1,2.6-0.3,3.6,0.6
		c1.1,0.9,1.1,2.8,0,3.7c-1.1,0.9-2.6,0.5-3.9,0.6c-1.4-0.1-3.1,0.4-4.2-0.8C30.8,89.5,31.2,87.4,32.6,86.8 M32.6,96.5
		c1.5-0.8,3.5,0.6,3.4,2.3c0,1.8-2.2,3-3.6,2C30.8,99.8,30.9,97.2,32.6,96.5L32.6,96.5z"/>
</g>
</svg>
